<svg id="visual" viewBox="0 0 900 600" width="900" height="600" xmlns="http://www.w3.org/2000/svg" xmlns:xlink="http://www.w3.org/1999/xlink" version="1.1"><rect x="0" y="0" width="900" height="600" fill="#ffffff"></rect><path d="M614 600L637.3 593.8C660.7 587.7 707.3 575.3 711.5 562.8C715.7 550.3 677.3 537.7 678.8 525.2C680.3 512.7 721.7 500.3 732.2 487.8C742.7 475.3 722.3 462.7 721 450.2C719.7 437.7 737.3 425.3 727.3 412.8C717.3 400.3 679.7 387.7 666.8 375.2C654 362.7 666 350.3 655.7 337.8C645.3 325.3 612.7 312.7 604 300.2C595.3 287.7 610.7 275.3 624.3 262.8C638 250.3 650 237.7 666.2 225.2C682.3 212.7 702.7 200.3 689 187.8C675.3 175.3 627.7 162.7 604 150.2C580.3 137.7 580.7 125.3 606 112.8C631.3 100.3 681.7 87.7 701.7 75.2C721.7 62.7 711.3 50.3 690.7 37.8C670 25.3 639 12.7 623.5 6.3L608 0L900 0L900 6.3C900 12.7 900 25.3 900 37.8C900 50.3 900 62.7 900 75.2C900 87.7 900 100.3 900 112.8C900 125.3 900 137.7 900 150.2C900 162.7 900 175.3 900 187.8C900 200.3 900 212.7 900 225.2C900 237.7 900 250.3 900 262.8C900 275.3 900 287.7 900 300.2C900 312.7 900 325.3 900 337.8C900 350.3 900 362.7 900 375.2C900 387.7 900 400.3 900 412.8C900 425.3 900 437.7 900 450.2C900 462.7 900 475.3 900 487.8C900 500.3 900 512.7 900 525.2C900 537.7 900 550.3 900 562.8C900 575.3 900 587.7 900 593.8L900 600Z" fill="#0f42ae" stroke-linecap="round" stroke-linejoin="miter"></path></svg>