<svg id="visual" viewBox="0 0 1920 1080" width="1920" height="1080" xmlns="http://www.w3.org/2000/svg" xmlns:xlink="http://www.w3.org/1999/xlink" version="1.1"><rect x="0" y="0" width="1920" height="1080" fill="#FFFFFF"></rect><defs><linearGradient id="grad1_0" x1="43.8%" y1="100%" x2="100%" y2="0%"><stop offset="14.444444444444446%" stop-color="#ffffff" stop-opacity="1"></stop><stop offset="85.55555555555554%" stop-color="#ffffff" stop-opacity="1"></stop></linearGradient></defs><defs><linearGradient id="grad2_0" x1="0%" y1="100%" x2="56.3%" y2="0%"><stop offset="14.444444444444446%" stop-color="#ffffff" stop-opacity="1"></stop><stop offset="85.55555555555554%" stop-color="#ffffff" stop-opacity="1"></stop></linearGradient></defs><g transform="translate(1920, 1080)"><path d="M-432 0C-406.5 -66.9 -381 -133.8 -348.1 -201C-315.3 -268.2 -275.2 -335.6 -216 -374.1C-156.8 -412.7 -78.4 -422.3 0 -432L0 0Z" fill="#00A1DF"></path></g><g transform="translate(0, 0)"><path d="M432 0C386.6 55.5 341.2 110.9 310.9 179.5C280.6 248.1 265.3 329.8 216 374.1C166.7 418.4 83.3 425.2 0 432L0 0Z" fill="#00A1DF"></path></g></svg>