<svg id="visual" viewBox="0 0 900 600" width="900" height="600" xmlns="http://www.w3.org/2000/svg" xmlns:xlink="http://www.w3.org/1999/xlink" version="1.1"><rect x="0" y="0" width="900" height="600" fill="#f2f0f4"></rect><path d="M708 600L713.3 593.8C718.7 587.7 729.3 575.3 706.7 562.8C684 550.3 628 537.7 612.3 525.2C596.7 512.7 621.3 500.3 625.8 487.8C630.3 475.3 614.7 462.7 602.2 450.2C589.7 437.7 580.3 425.3 597.7 412.8C615 400.3 659 387.7 660 375.2C661 362.7 619 350.3 617.2 337.8C615.3 325.3 653.7 312.7 671.3 300.2C689 287.7 686 275.3 697.7 262.8C709.3 250.3 735.7 237.7 745.8 225.2C756 212.7 750 200.3 722.5 187.8C695 175.3 646 162.7 618 150.2C590 137.7 583 125.3 586 112.8C589 100.3 602 87.7 605.3 75.2C608.7 62.7 602.3 50.3 609 37.8C615.7 25.3 635.3 12.7 645.2 6.3L655 0L900 0L900 6.3C900 12.7 900 25.3 900 37.8C900 50.3 900 62.7 900 75.2C900 87.7 900 100.3 900 112.8C900 125.3 900 137.7 900 150.2C900 162.7 900 175.3 900 187.8C900 200.3 900 212.7 900 225.2C900 237.7 900 250.3 900 262.8C900 275.3 900 287.7 900 300.2C900 312.7 900 325.3 900 337.8C900 350.3 900 362.7 900 375.2C900 387.7 900 400.3 900 412.8C900 425.3 900 437.7 900 450.2C900 462.7 900 475.3 900 487.8C900 500.3 900 512.7 900 525.2C900 537.7 900 550.3 900 562.8C900 575.3 900 587.7 900 593.8L900 600Z" fill="#0f42ae" stroke-linecap="round" stroke-linejoin="miter"></path></svg> 